<?xml version="1.0" encoding="UTF-8"?>
<!DOCTYPE svg PUBLIC "-//W3C//DTD SVG 1.1//EN" "http://www.w3.org/Graphics/SVG/1.1/DTD/svg11.dtd">
<!-- Creator: CorelDRAW X7 -->
<svg xmlns="http://www.w3.org/2000/svg" xml:space="preserve" width="189.204mm" height="127.803mm" version="1.1" style="shape-rendering:geometricPrecision; text-rendering:geometricPrecision; image-rendering:optimizeQuality; fill-rule:evenodd; clip-rule:evenodd"
viewBox="0 0 18920 12780"
 xmlns:xlink="http://www.w3.org/1999/xlink">
 <defs>
  <style type="text/css">
   <![CDATA[
    .fil0 {fill:#FEFEFE}
    .fil2 {fill:url(#id5)}
    .fil1 {fill:url(#id6)}
    .fil3 {fill:url(#id7);fill-rule:nonzero}
   ]]>
  </style>
   <clipPath id="id0">
    <path d="M2065 7896l15313 0 0 3525 -15313 0 0 -3525z"/>
   </clipPath>
    <mask id="id1">
  <linearGradient id="id2" gradientUnits="userSpaceOnUse" x1="9855.36" y1="7503.5" x2="9863.48" y2="6924.74">
   <stop offset="0" style="stop-opacity:1; stop-color:white"/>
   <stop offset="1" style="stop-opacity:0; stop-color:white"/>
  </linearGradient>
     <rect style="fill:url(#id2)" x="8014" y="6791" width="3690" height="846"/>
    </mask>
    <mask id="id3">
  <linearGradient id="id4" gradientUnits="userSpaceOnUse" x1="9495.92" y1="10737.3" x2="9530.04" y2="8107.86">
   <stop offset="0" style="stop-opacity:1; stop-color:white"/>
   <stop offset="1" style="stop-opacity:0; stop-color:white"/>
  </linearGradient>
     <rect style="fill:url(#id4)" x="2084" y="7875" width="14858" height="3095"/>
    </mask>
  <linearGradient id="id5" gradientUnits="userSpaceOnUse" x1="10482" y1="7626.95" x2="10482" y2="3460.34">
   <stop offset="0" style="stop-opacity:1; stop-color:#A02B2D"/>
   <stop offset="1" style="stop-opacity:1; stop-color:#ED3237"/>
  </linearGradient>
  <linearGradient id="id6" gradientUnits="userSpaceOnUse" x1="8696.17" y1="4956.38" x2="8696.17" y2="1728.76">
   <stop offset="0" style="stop-opacity:1; stop-color:#263B6E"/>
   <stop offset="1" style="stop-opacity:1; stop-color:#4D75B8"/>
  </linearGradient>
  <linearGradient id="id7" gradientUnits="userSpaceOnUse" xlink:href="#id6" x1="9460.2" y1="7875.31" x2="9460.2" y2="11051.5">
  </linearGradient>
 </defs>
 <g id="Layer_x0020_1">
  <metadata id="CorelCorpID_0Corel-Layer"/>
  <rect class="fil0" width="18920" height="12780"/>
  <g id="_2577344177648">
   <polygon class="fil1" points="9892,2630 10416,3728 9941,1729 9155,3760 6976,3728 8844,4956 8106,4088 9450,4088 "/>
   <path class="fil2" d="M12120 3722c-2063,748 -3474,2108 -4096,3905 160,-2160 2107,-4285 4916,-4162 -808,399 -1410,1028 -1868,1819l622 1819 -1736 -967 -983 819c747,-1519 1873,-2631 3145,-3233z"/>
  </g>
  <g style="clip-path:url(#id0)">
   <image x="2065" y="7896" width="15313" height="3526" xlink:href="logo_Images\logo_ImgID1.png"/>
  </g>
  <path class="fil3" d="M1978 10041l615 0c23,176 91,300 201,370 117,83 278,124 483,124 182,0 319,-32 413,-97 94,-64 140,-158 140,-281 0,-187 -263,-339 -789,-456l-17 -8c0,0 -24,-6 -71,-18 -298,-65 -496,-132 -596,-202 -117,-64 -198,-159 -245,-281 -59,-105 -88,-240 -88,-404 0,-287 100,-512 299,-676 199,-158 489,-237 869,-237 357,0 632,82 825,246 199,182 304,418 315,711l-350 0c-135,0 -231,-61 -290,-185l0 0c-29,-58 -70,-108 -123,-149 -105,-77 -248,-115 -429,-115 -176,0 -302,32 -378,97 -87,64 -132,155 -132,271 0,158 170,276 508,352 100,29 172,47 219,53 105,35 197,63 276,83 79,20 142,36 188,48 82,35 164,70 246,105 117,71 208,161 273,273 64,123 96,257 96,403 0,316 -105,562 -316,738 -211,164 -509,246 -896,246 -397,0 -695,-85 -895,-255 -216,-170 -333,-422 -351,-756zm3618 939c-193,12 -402,9 -627,-9 -226,-18 -339,-161 -339,-430l0 -2580 317 0c76,0 143,29 202,87 59,59 88,128 88,211l0 394 359 0 0 123c0,88 -29,160 -87,215 -59,56 -129,84 -211,84l-61 0 0 1297c0,100 58,149 175,149l184 0 0 459zm1403 -1173c-83,41 -196,79 -343,114 -135,29 -202,44 -202,44 -106,29 -182,67 -230,114 -41,64 -61,129 -61,193 0,88 26,158 79,210 53,48 129,71 229,71 164,0 293,-47 387,-141 94,-94 141,-222 141,-386l0 -219zm140 1077c-123,64 -253,104 -391,119 -138,14 -259,22 -365,22 -211,0 -395,-57 -553,-172 -158,-114 -237,-302 -237,-566 0,-246 71,-422 215,-527 143,-106 327,-176 549,-211 29,0 64,-4 106,-13 41,-9 87,-16 140,-22 258,-35 387,-111 387,-228 0,-88 -46,-145 -137,-172 -90,-26 -173,-39 -250,-39 -81,0 -155,12 -219,36 -64,24 -111,69 -140,135l-588 0c23,-182 105,-332 246,-450 158,-135 383,-202 675,-202 328,0 574,56 738,167 170,117 254,281 254,491l0 798c0,235 -42,417 -127,549 -85,131 -187,226 -303,285zm517 96l0 -1133c0,-229 34,-420 101,-575 68,-156 160,-280 277,-374 112,-88 242,-152 391,-193 149,-41 303,-61 461,-61 12,0 26,0 44,0 17,0 32,0 44,0l0 624 -202 0c-170,0 -296,41 -378,123 -81,82 -122,210 -122,386l0 1203 -616 0zm2923 -3028l299 0c82,0 152,30 211,92 58,61 88,130 88,206l0 1712c0,416 -120,696 -360,843 -241,146 -501,220 -783,220 -152,0 -302,-25 -448,-75 -146,-50 -263,-130 -352,-241 -170,-217 -254,-512 -254,-886 0,-369 84,-664 254,-887 176,-228 402,-342 677,-342 147,0 276,29 387,88 117,70 211,161 281,272l0 -1002zm-1002 1845c0,234 45,412 132,536 88,123 214,184 378,184 158,0 281,-61 369,-184 82,-124 123,-302 123,-536 0,-212 -44,-379 -132,-501 -93,-118 -219,-176 -378,-176 -152,0 -272,61 -360,184 -87,117 -132,281 -132,493zm1994 972c-123,-105 -211,-247 -264,-426 -52,-178 -79,-364 -79,-557 0,-158 22,-316 66,-474 44,-158 113,-289 206,-394 152,-176 348,-280 588,-312 240,-32 457,-13 650,57 221,88 385,240 491,457 100,192 149,418 149,675 0,187 -20,348 -61,482 -42,135 -94,250 -158,343 -140,193 -319,312 -536,360 -193,52 -387,57 -583,13 -196,-44 -353,-119 -469,-224zm420 -1544c-123,134 -179,335 -167,601 12,266 62,451 149,557 36,47 97,86 185,118 87,32 176,35 267,9 90,-26 171,-92 242,-198 69,-104 108,-274 114,-508 0,-211 -34,-369 -102,-474 -67,-105 -144,-173 -232,-202 -87,-29 -176,-31 -263,-5 -88,27 -152,61 -193,102zm3518 1755l-607 0 0 -1370 0 -123c0,-140 -41,-242 -126,-307 -85,-64 -180,-96 -285,-96 -104,0 -197,32 -279,96 -81,65 -123,167 -123,307l0 1493 -615 0 0 -1368c0,-398 104,-664 311,-799 208,-134 438,-207 690,-219 135,0 266,15 395,44 129,29 246,88 351,175 88,-76 192,-130 312,-162 120,-32 244,-51 373,-57 257,0 495,67 711,202 216,134 325,406 325,816l0 1368 -308 0c-87,0 -159,-28 -215,-83 -56,-57 -83,-128 -83,-216l0 0 0 -1194c0,-140 -43,-242 -128,-307 -85,-64 -180,-96 -286,-96 -105,0 -200,32 -286,96 -84,65 -127,167 -127,307l0 123 0 1370z"/>
  <g id="_2577344180336">
   <path class="fil0" style="mask:url(#id1)" d="M8243 7082c-81,177 -154,358 -219,545 14,-178 39,-357 76,-533l143 -12zm3348 -281l103 302 -484 -270 381 -32z"/>
   <path class="fil0" style="mask:url(#id3)" d="M2084 8440c49,-128 129,-238 239,-328 199,-158 489,-237 869,-237 357,0 632,82 825,246 199,182 304,418 315,711l-350 0c-135,0 -231,-61 -290,-185l0 0c-29,-58 -70,-108 -123,-149 -105,-77 -248,-115 -429,-115 -176,0 -302,32 -378,97 -87,64 -132,155 -132,271 0,34 8,66 24,96 -202,-120 -393,-255 -570,-407zm1097 675c78,22 136,36 176,41 105,35 197,63 276,83 79,20 142,36 188,48 82,35 164,70 246,105 19,12 37,23 54,36 -329,-82 -644,-185 -940,-313zm13761 1855c-178,-211 -381,-392 -606,-547l0 -936c0,-140 -43,-242 -128,-307 -85,-64 -180,-96 -286,-96 -105,0 -200,32 -286,96 -84,65 -127,167 -127,307l0 123 0 386c-193,-73 -396,-135 -607,-187l0 -199 0 -123c0,-140 -41,-242 -126,-307 -85,-64 -180,-96 -285,-96 -104,0 -197,32 -279,96 -81,65 -123,167 -123,307l0 169c-200,-27 -405,-49 -615,-65 4,-386 108,-646 311,-778 208,-134 438,-207 690,-219 135,0 266,15 395,44 129,29 246,88 351,175 88,-76 192,-130 312,-162 120,-32 244,-51 373,-57 257,0 495,67 711,202 216,134 325,406 325,816l0 1358zm-3576 -1386c-198,-14 -400,-23 -605,-29 -17,-91 -44,-166 -82,-225 -67,-105 -144,-173 -232,-202 -87,-29 -176,-31 -263,-5 -88,27 -152,61 -193,102 -77,83 -127,192 -151,326 -197,3 -397,8 -597,14 10,-84 28,-168 51,-253 44,-158 113,-289 206,-394 152,-176 348,-280 588,-312 240,-32 457,-13 650,57 221,88 385,240 491,457 71,138 117,292 137,464zm-2189 -17c-203,7 -408,16 -614,25 -20,-118 -59,-216 -116,-296 -93,-118 -219,-176 -378,-176 -152,0 -272,61 -360,184 -64,86 -105,198 -122,335 -201,10 -401,20 -602,29 21,-298 104,-541 249,-732 176,-228 402,-342 677,-342 147,0 276,29 387,88 117,70 211,161 281,272l0 -1002 299 0c82,0 152,30 211,92 58,61 88,130 88,206l0 1317zm-2902 131c-206,7 -411,13 -615,17 11,-171 43,-319 97,-443 68,-156 160,-280 277,-374 112,-88 242,-152 391,-193 149,-41 303,-61 461,-61 12,0 26,0 44,0 17,0 32,0 44,0l0 624 -202 0c-170,0 -296,41 -378,123 -68,69 -109,171 -119,307zm-706 19c-561,10 -1113,4 -1646,-30 123,-66 267,-112 434,-138 29,0 64,-4 106,-13 41,-9 87,-16 140,-22 258,-35 387,-111 387,-228 0,-88 -46,-145 -137,-172 -90,-26 -173,-39 -250,-39 -81,0 -155,12 -219,36 -64,24 -111,69 -140,135l-588 0c23,-182 105,-332 246,-450 158,-135 383,-202 675,-202 328,0 574,56 738,167 170,117 254,281 254,491l0 465zm-2332 -91c-206,-24 -409,-54 -607,-90l0 -1575 317 0c76,0 143,29 202,87 59,59 88,128 88,211l0 394 359 0 0 123c0,88 -29,160 -87,215 -59,56 -129,84 -211,84l-61 0 0 551z"/>
  </g>
 </g>
</svg>
